<svg id="Ebene_1" data-name="Ebene 1" xmlns="http://www.w3.org/2000/svg" viewBox="0 0 700 300">
  <defs>
    <style>
      .cls-1 {
        fill: #fff;
      }

      .cls-2 {
        fill: #ffc316;
      }

      .cls-3 {
        fill: #414042;
      }
    </style>
  </defs>
  <title>logo_artb_framed_web</title>
  <rect id="bg" class="cls-1" width="700" height="300"/>
  <g id="logo">
    <g id="illu">
      <g id="bee">
        <path id="bg-2" data-name="bg" class="cls-2" d="M386.16,109.52h32.22l13.1,22.7a10.44,10.44,0,0,1,0,10.4l-13.1,22.69H386.16l-16.1-27.89Z"/>
        <path id="frame" class="cls-3" d="M354.22,137.42a2.15,2.15,0,0,0,2.15,2.15h9.95l17.35,30.06h37.2l14.35-24.86a14.75,14.75,0,0,0,0-14.71l-1.35-2.34A22.94,22.94,0,0,1,455,106.16a6.45,6.45,0,1,0-.05-4.32,27.28,27.28,0,0,0-24.47,20l-7.2-12.46-1.73-3.08c-.49-.88-1-1.81-1.55-2.8-6.87-12.44-18.37-33.27-35.36-33.27a19.64,19.64,0,0,0-3.29,39l-15,26h-9.95A2.15,2.15,0,0,0,354.22,137.42Zm104.69-33.49a2.14,2.14,0,1,1,2.14,2.14A2.14,2.14,0,0,1,458.91,103.93ZM416,105.21H384.64a15.33,15.33,0,0,1,0-30.66C398.92,74.55,409.57,93.55,416,105.21Zm4.79,55.9-13.68-23.69,13.68-23.7,8.72,15.1c0,.06,0,.12,0,.19h.12l1.85,3.21a10.44,10.44,0,0,1,0,10.4Zm-16.75,4.2-16.11-27.89,16.11-27.9h9.22l-16.11,27.9,16.11,27.89Zm-34-27.89,16.1-27.9h7.93L378,137.42l16.11,27.89h-7.93Z"/>
        <path id="eye" class="cls-3" d="M421.22,125.59a4.89,4.89,0,1,1-4.88,4.89A4.89,4.89,0,0,1,421.22,125.59Z"/>
      </g>
      <path class="cls-3" d="M428.65,174.52a8.4,8.4,0,0,1,4,.95c6.74,3.65,10,10.59,10,21.22,0,17.51-10.38,27.15-29.22,27.15H388.59V174.52h40.06m0-5H383.59v56.32a2.82,2.82,0,0,0,2.61,3h27.27c22,0,34.22-12.27,34.22-32.15,0-13.59-5-21.47-12.65-25.62a13.43,13.43,0,0,0-6.39-1.55Z"/>
    </g>
    <g id="font">
      <path id="m" class="cls-3" d="M193,163.23q6.24,6.12,6.24,16.54v47.45c0,.94-.53,1.41-1.6,1.41H196c-1.06,0-1.6-.47-1.6-1.41V180.34q0-8.88-5.2-14.08t-13.52-5.21q-9,0-14.24,5.07t-5.28,13.94v47.16c0,.94-.53,1.41-1.6,1.41H153c-1.06,0-1.6-.47-1.6-1.41V180.34q0-8.88-5.12-14.08t-13.44-5.21q-9.12,0-14.4,5.07t-5.28,13.94v47.16c0,.94-.53,1.41-1.6,1.41h-1.6c-1.06,0-1.6-.47-1.6-1.41V159.5c0-.94.54-1.41,1.6-1.41h1.6c1.07,0,1.6.47,1.6,1.41v6.76c0,.28.08.44.24.49a.6.6,0,0,0,.56-.21,19.47,19.47,0,0,1,8.08-7,27.08,27.08,0,0,1,11.76-2.39,23.78,23.78,0,0,1,12.64,3.23,19.55,19.55,0,0,1,7.84,9.16c.11.28.22.42.32.42s.22-.14.32-.42a19.45,19.45,0,0,1,8.4-9.23,27,27,0,0,1,13.36-3.16Q186.72,157.11,193,163.23Z"/>
      <path id="e" class="cls-3" d="M253.44,222.51a17.53,17.53,0,0,0,7.36-8.94,1.88,1.88,0,0,1,1.92-1.13H264a1.43,1.43,0,0,1,1.2.49,1.08,1.08,0,0,1,.08,1.2,21.59,21.59,0,0,1-9,11.33,28.21,28.21,0,0,1-15.84,4.3q-10.23,0-17-5.35a21.12,21.12,0,0,1-8.08-13.94,158.88,158.88,0,0,1-.64-17.18q0-12,.48-16.75a21.47,21.47,0,0,1,8.08-14.15q6.81-5.43,17.2-5.42,10.72,0,17.68,5.49a20.37,20.37,0,0,1,7.92,14.36q.48,4.37.48,16.05c0,.94-.53,1.41-1.6,1.41h-44.8c-.42,0-.64.19-.64.56q0,10.56.32,14.36a17.25,17.25,0,0,0,6.48,12q5.69,4.57,14.32,4.58A23.67,23.67,0,0,0,253.44,222.51Zm-27.2-57a17.24,17.24,0,0,0-6.4,11.9q-.32,3.52-.32,12.67c0,.38.22.57.64.57h41c.43,0,.64-.19.64-.57q0-9.15-.32-12.53a17.19,17.19,0,0,0-6.48-12q-5.69-4.57-14.48-4.57Q231.84,160.91,226.24,165.48Z"/>
      <path id="d" class="cls-3" d="M327.52,130.07h1.6c1.07,0,1.6.47,1.6,1.41v95.74c0,.94-.53,1.41-1.6,1.41h-1.6c-1.07,0-1.6-.47-1.6-1.41V219.9c0-.28-.1-.44-.32-.49s-.37.07-.48.35a19.37,19.37,0,0,1-8,7.39,26.07,26.07,0,0,1-12,2.61q-10.08,0-16.64-5.35a21.54,21.54,0,0,1-7.84-14.08,155.21,155.21,0,0,1-.64-16.9c0-8,.16-13.66.48-17a21.41,21.41,0,0,1,7.92-14.08Q295,157,305.12,157a26.07,26.07,0,0,1,12,2.6,19.43,19.43,0,0,1,8,7.39.89.89,0,0,0,.56.28q.24,0,.24-.42V131.48C325.92,130.54,326.45,130.07,327.52,130.07Zm-1.6,63.36q0-10.14-.48-16.19a17.68,17.68,0,0,0-6-11.76q-5.19-4.57-13.52-4.57t-14.16,4.57a17,17,0,0,0-6.48,11.76q-.48,5.91-.48,16,0,9.86.48,16.19a17.13,17.13,0,0,0,6.4,11.76q5.6,4.57,14.24,4.58,8.32,0,13.52-4.58a17.68,17.68,0,0,0,6-11.76Q325.92,203.29,325.92,193.43Z"/>
      <path id="i" class="cls-3" d="M349.6,140.49a4.34,4.34,0,0,1-1.6-3.38,4,4,0,0,1,1.6-3.17,5.81,5.81,0,0,1,3.84-1.33,5.15,5.15,0,0,1,3.52,1.26,4.14,4.14,0,0,1,1.44,3.24,4.55,4.55,0,0,1-1.44,3.38,4.84,4.84,0,0,1-3.52,1.41A5.62,5.62,0,0,1,349.6,140.49ZM351,227.22V159.5c0-.94.53-1.41,1.6-1.41h1.6c1.07,0,1.6.47,1.6,1.41v67.72c0,.94-.53,1.41-1.6,1.41h-1.6C351.57,228.63,351,228.16,351,227.22Z"/>
      <path id="dot" class="cls-2" d="M457.76,226a5.83,5.83,0,0,1-1.92-4.37,5.59,5.59,0,0,1,1.92-4.29,7,7,0,0,1,9.28,0,5.59,5.59,0,0,1,1.92,4.29A5.83,5.83,0,0,1,467,226a6.8,6.8,0,0,1-9.28,0Z"/>
      <path id="_1st-e" data-name="1st-e" class="cls-2" d="M516.32,222.51a17.53,17.53,0,0,0,7.36-8.94,1.88,1.88,0,0,1,1.92-1.13h1.28a1.46,1.46,0,0,1,1.2.49,1.09,1.09,0,0,1,.08,1.2,21.64,21.64,0,0,1-9,11.33,28.26,28.26,0,0,1-15.84,4.3q-10.25,0-17-5.35a21,21,0,0,1-8.08-13.94,156.26,156.26,0,0,1-.64-17.18q0-12,.48-16.75a21.39,21.39,0,0,1,8.08-14.15Q493,157,503.36,157q10.71,0,17.68,5.49A20.37,20.37,0,0,1,529,176.82q.48,4.37.48,16.05c0,.94-.54,1.41-1.6,1.41H483c-.43,0-.64.19-.64.56q0,10.56.32,14.36a17.17,17.17,0,0,0,6.48,12q5.67,4.57,14.32,4.58A23.69,23.69,0,0,0,516.32,222.51Zm-27.2-57a17.17,17.17,0,0,0-6.4,11.9q-.33,3.52-.32,12.67c0,.38.21.57.64.57h41c.42,0,.64-.19.64-.57q0-9.15-.32-12.53a17.27,17.27,0,0,0-6.48-12q-5.69-4.57-14.48-4.57Q494.72,160.91,489.12,165.48Z"/>
      <path id="_2nd-e" data-name="2nd-e" class="cls-2" d="M578.56,222.51a17.53,17.53,0,0,0,7.36-8.94,1.88,1.88,0,0,1,1.92-1.13h1.28a1.46,1.46,0,0,1,1.2.49,1.09,1.09,0,0,1,.08,1.2,21.64,21.64,0,0,1-9,11.33,28.26,28.26,0,0,1-15.84,4.3q-10.25,0-17-5.35a21,21,0,0,1-8.08-13.94,156.26,156.26,0,0,1-.64-17.18q0-12,.48-16.75a21.39,21.39,0,0,1,8.08-14.15q6.79-5.43,17.2-5.42,10.71,0,17.68,5.49a20.37,20.37,0,0,1,7.92,14.36q.48,4.37.48,16.05c0,.94-.54,1.41-1.6,1.41h-44.8c-.43,0-.64.19-.64.56q0,10.56.32,14.36a17.17,17.17,0,0,0,6.48,12q5.67,4.57,14.32,4.58A23.69,23.69,0,0,0,578.56,222.51Zm-27.2-57a17.17,17.17,0,0,0-6.4,11.9q-.33,3.52-.32,12.67c0,.38.21.57.64.57h41c.42,0,.64-.19.64-.57q0-9.15-.32-12.53a17.27,17.27,0,0,0-6.48-12q-5.69-4.57-14.48-4.57Q557,160.91,551.36,165.48Z"/>
    </g>
  </g>
</svg>
